<svg width="210" height="210" viewBox="0 0 210 210" fill="none" xmlns="http://www.w3.org/2000/svg">
<path d="M58.5286 177.807C51.7618 173.9 45.8307 168.699 41.0741 162.5C36.3174 156.301 32.8283 149.226 30.806 141.678C28.7837 134.131 28.2678 126.259 29.2876 118.512C30.3075 110.765 32.8433 103.295 36.7501 96.5285C40.6569 89.7617 45.8583 83.8306 52.0573 79.074C58.2563 74.3173 65.3315 70.8282 72.8789 68.8059C80.4263 66.7836 88.2981 66.2677 96.0449 67.2875C103.792 68.3074 111.262 70.8432 118.029 74.75L88.2786 126.279L58.5286 177.807Z" fill="#F7FF9B"/>
<path d="M152.029 31.7501C158.795 35.6569 164.726 40.8583 169.483 47.0573C174.24 53.2563 177.729 60.3315 179.751 67.8789C181.773 75.4263 182.289 83.2981 181.269 91.0449C180.25 98.7917 177.714 106.262 173.807 113.029C169.9 119.795 164.699 125.726 158.5 130.483C152.301 135.24 145.226 138.729 137.678 140.751C130.131 142.774 122.259 143.289 114.512 142.27C106.765 141.25 99.2953 138.714 92.5285 134.807L122.279 83.2786L152.029 31.7501Z" fill="#F7FF9B"/>
</svg>
