<svg width="20" height="20" viewBox="0 0 20 20" fill="none" xmlns="http://www.w3.org/2000/svg">
<path d="M11.6667 15.8333H13.3333C13.7754 15.8333 14.1993 15.6577 14.5118 15.3452C14.8244 15.0326 15 14.6087 15 14.1667V12.135C15.0001 11.7633 15.1243 11.4024 15.3531 11.1094C15.5818 10.8165 15.9019 10.6085 16.2625 10.5183L17.525 10.2017C17.735 10.1492 17.735 9.85082 17.525 9.79749L16.2625 9.48249C15.9019 9.39236 15.5818 9.1843 15.3531 8.89138C15.1243 8.59846 15.0001 8.23748 15 7.86582V4.16666H11.6667M8.33334 4.16666H6.66667C6.22464 4.16666 5.80072 4.34225 5.48816 4.65481C5.1756 4.96737 5 5.3913 5 5.83332V7.86499C4.99995 8.23665 4.87567 8.59763 4.64692 8.89055C4.41817 9.18347 4.09807 9.39153 3.7375 9.48166L2.475 9.79832C2.265 9.85082 2.265 10.1492 2.475 10.2025L3.7375 10.5175C4.09807 10.6076 4.41817 10.8157 4.64692 11.1086C4.87567 11.4015 4.99995 11.7625 5 12.1342V15.8333H8.33334" stroke="#F7FF9B" stroke-width="2"/>
</svg>
